<?xml version="1.0" encoding="utf-8"?>
<!-- Generator: Adobe Illustrator 15.0.2, SVG Export Plug-In . SVG Version: 6.00 Build 0)  -->
<!DOCTYPE svg PUBLIC "-//W3C//DTD SVG 1.1//EN" "http://www.w3.org/Graphics/SVG/1.1/DTD/svg11.dtd">
<svg version="1.1" id="Layer_1" xmlns="http://www.w3.org/2000/svg" xmlns:xlink="http://www.w3.org/1999/xlink" x="0px" y="0px"
	 width="43px" height="26px" viewBox="0 0 43 26" enable-background="new 0 0 43 26" xml:space="preserve">
<g>
	<path d="M16.03,14.323c-0.271,0.12-0.534,0.279-0.789,0.477s-0.512,0.414-0.772,0.649s-0.53,0.483-0.81,0.744
		c-0.279,0.261-0.581,0.503-0.904,0.728c-0.324,0.224-0.677,0.439-1.059,0.643c-0.382,0.205-0.804,0.383-1.266,0.538
		c-0.462,0.153-0.972,0.276-1.527,0.367c-0.557,0.091-1.172,0.136-1.847,0.136c-0.747,0-1.421-0.149-2.021-0.446
		c-0.601-0.297-1.114-0.699-1.54-1.204c-0.426-0.505-0.754-1.092-0.983-1.761c-0.23-0.669-0.345-1.372-0.345-2.109
		c0-0.512,0.055-1.062,0.166-1.65s0.27-1.187,0.478-1.797c0.207-0.61,0.46-1.219,0.759-1.826s0.638-1.189,1.017-1.747
		C4.966,5.507,5.383,4.99,5.836,4.514s0.938-0.892,1.453-1.246c0.515-0.354,1.057-0.631,1.627-0.832
		c0.57-0.2,1.162-0.301,1.776-0.301c0.398,0,0.802,0.07,1.212,0.212c0.41,0.141,0.777,0.358,1.104,0.651s0.594,0.664,0.801,1.112
		c0.208,0.448,0.312,0.977,0.312,1.585c0,0.41-0.065,0.823-0.195,1.241c-0.13,0.418-0.308,0.819-0.535,1.204
		c-0.227,0.384-0.494,0.746-0.801,1.083c-0.308,0.337-0.638,0.629-0.992,0.876c-0.354,0.246-0.722,0.441-1.104,0.585
		s-0.764,0.216-1.146,0.216c-0.503,0-0.88-0.068-1.129-0.203c-0.249-0.136-0.374-0.331-0.374-0.585c0-0.044-0.001-0.097-0.004-0.158
		C7.838,9.894,7.837,9.831,7.837,9.764c0-0.1,0.005-0.204,0.017-0.311C7.865,9.345,7.887,9.247,7.92,9.158s0.082-0.161,0.145-0.216
		c0.064-0.055,0.151-0.083,0.262-0.083c0.066,0,0.125,0.01,0.174,0.029c0.05,0.019,0.105,0.04,0.166,0.062s0.134,0.043,0.22,0.062
		c0.085,0.02,0.195,0.029,0.328,0.029c0.354,0,0.712-0.078,1.075-0.232c0.363-0.155,0.689-0.374,0.979-0.656
		c0.291-0.282,0.529-0.619,0.714-1.008c0.186-0.391,0.278-0.821,0.278-1.291c0-0.249-0.033-0.485-0.1-0.71
		c-0.066-0.224-0.174-0.42-0.324-0.589c-0.149-0.169-0.342-0.305-0.577-0.407c-0.235-0.102-0.522-0.153-0.859-0.153
		c-0.398,0-0.787,0.088-1.166,0.264C8.856,4.435,8.493,4.673,8.144,4.975C7.795,5.276,7.465,5.633,7.152,6.046
		C6.839,6.459,6.55,6.902,6.285,7.373C6.019,7.845,5.78,8.336,5.567,8.847c-0.213,0.511-0.395,1.02-0.544,1.528
		s-0.264,1-0.345,1.478c-0.08,0.477-0.12,0.917-0.12,1.318c0,0.59,0.07,1.105,0.212,1.543c0.141,0.438,0.341,0.804,0.602,1.096
		c0.26,0.292,0.578,0.51,0.955,0.653s0.8,0.215,1.27,0.215c0.586,0,1.133-0.076,1.64-0.228c0.506-0.152,0.989-0.351,1.448-0.598
		s0.903-0.524,1.332-0.834c0.429-0.31,0.858-0.621,1.287-0.933c0.429-0.312,0.866-0.61,1.312-0.894
		c0.445-0.284,0.917-0.523,1.415-0.718V14.323z"/>
	<path d="M18.205,17.152l0.183-1.003c-0.299,0.263-0.61,0.475-0.934,0.637c-0.323,0.162-0.638,0.242-0.942,0.242
		c-0.266,0-0.524-0.054-0.776-0.162c-0.252-0.107-0.475-0.263-0.668-0.465c-0.194-0.202-0.349-0.448-0.465-0.738
		c-0.116-0.291-0.174-0.619-0.174-0.984c0-0.481,0.033-0.923,0.1-1.324c0.066-0.401,0.148-0.896,0.245-1.486
		c0.098-0.589,0.212-1.054,0.345-1.395s0.285-0.685,0.457-1.034c0.127-0.249,0.31-0.438,0.547-0.568
		c0.238-0.13,0.47-0.195,0.697-0.195c0.193,0,0.359,0.048,0.498,0.146c0.138,0.097,0.208,0.248,0.208,0.453
		c0,0.061-0.007,0.127-0.021,0.199s-0.037,0.149-0.069,0.232c-0.098,0.255-0.18,0.558-0.247,0.909
		c-0.067,0.351-0.157,0.818-0.269,1.403c-0.112,0.584-0.201,1.048-0.267,1.391c-0.066,0.342-0.099,0.648-0.099,0.917
		c0,0.14,0.01,0.275,0.029,0.407c0.019,0.132,0.054,0.249,0.104,0.353s0.116,0.188,0.199,0.251c0.083,0.064,0.188,0.097,0.315,0.097
		c0.205,0,0.39-0.089,0.556-0.268c0.166-0.178,0.31-0.393,0.432-0.644s0.22-0.51,0.294-0.777c0.075-0.268,0.124-0.49,0.146-0.669
		l0.665-3.104c0.039-0.183,0.116-0.349,0.233-0.498c0.111-0.144,0.241-0.267,0.391-0.369c0.15-0.103,0.305-0.179,0.466-0.229
		c0.161-0.05,0.313-0.075,0.457-0.075c0.172,0,0.316,0.038,0.433,0.112c0.116,0.075,0.174,0.192,0.174,0.353
		c0,0.05-0.008,0.108-0.025,0.175c-0.026,0.147-0.061,0.345-0.104,0.593c-0.043,0.248-0.093,0.531-0.148,0.847
		s-0.132,0.76-0.231,1.331c-0.1,0.571-0.18,1.03-0.242,1.378c-0.14,0.822-0.283,1.704-0.429,2.648
		c0.168-0.094,0.35-0.21,0.544-0.348c0.194-0.139,0.411-0.324,0.648-0.556c0.238-0.232,0.503-0.524,0.797-0.875
		s0.623-0.79,0.988-1.315l0.398,1.848c-0.1,0.17-0.227,0.343-0.382,0.519c-0.166,0.187-0.343,0.369-0.531,0.544
		c-0.277,0.253-0.476,0.423-0.598,0.511c-0.039,0.027-0.241,0.187-0.606,0.477c-0.111,0.094-0.477,0.349-1.099,0.763
		c-0.151,0.1-0.255,0.281-0.311,0.544s-0.121,0.751-0.193,1.464c-0.032,0.204-0.052,0.36-0.06,0.471
		c-0.034,0.264-0.065,0.516-0.096,0.755s-0.084,0.513-0.162,0.82c-0.077,0.307-0.168,0.59-0.273,0.847s-0.243,0.514-0.414,0.768
		c-0.171,0.255-0.36,0.472-0.567,0.652s-0.457,0.325-0.75,0.436c-0.292,0.111-0.613,0.166-0.961,0.166
		c-0.282,0-0.542-0.032-0.783-0.095s-0.46-0.162-0.659-0.294s-0.362-0.314-0.489-0.543c-0.127-0.229-0.202-0.499-0.224-0.809
		c-0.044-0.586,0.116-1.205,0.481-1.857c0.205-0.365,0.349-0.618,0.432-0.759s0.213-0.344,0.39-0.609
		c0.177-0.26,0.362-0.495,0.556-0.705c0.387-0.437,0.707-0.788,0.958-1.053C17.556,17.74,17.856,17.456,18.205,17.152z
		 M18.234,19.153c-0.388,0.277-0.771,0.719-1.147,1.328c-0.377,0.608-0.677,1.228-0.898,1.859c-0.183,0.531-0.092,0.797,0.273,0.797
		c0.133,0,0.252-0.017,0.357-0.05s0.202-0.093,0.291-0.179c0.088-0.085,0.166-0.18,0.232-0.282c0.066-0.102,0.137-0.246,0.211-0.432
		c0.075-0.185,0.142-0.368,0.199-0.548c0.059-0.18,0.132-0.419,0.22-0.718c0.05-0.161,0.087-0.339,0.111-0.536
		c0.024-0.197,0.053-0.434,0.086-0.71C18.203,19.406,18.225,19.229,18.234,19.153z"/>
	<path d="M25.596,17.011c-0.513,0-0.962-0.094-1.35-0.282s-0.711-0.44-0.973-0.755c-0.262-0.315-0.46-0.681-0.593-1.096
		c-0.134-0.415-0.201-0.847-0.201-1.295c0-0.321,0.056-0.706,0.167-1.154s0.232-0.84,0.363-1.175
		c0.131-0.334,0.292-0.654,0.484-0.958s0.415-0.571,0.667-0.801c0.253-0.229,0.536-0.412,0.847-0.548
		c0.312-0.135,0.654-0.203,1.026-0.203c0.335,0,0.646,0.048,0.932,0.146c0.286,0.097,0.53,0.231,0.733,0.402s0.362,0.375,0.477,0.61
		c0.115,0.235,0.172,0.488,0.172,0.759c0,0.188-0.027,0.374-0.081,0.556c-0.054,0.183-0.159,0.397-0.314,0.644
		c-0.155,0.246-0.307,0.414-0.454,0.502c-0.146,0.088-0.312,0.133-0.498,0.133c-0.28,0-0.461-0.069-0.542-0.208
		c-0.134-0.216-0.176-0.407-0.127-0.573c0.017-0.088,0.066-0.293,0.149-0.614c0.011-0.044,0.014-0.144,0.008-0.299
		c0-0.133-0.014-0.244-0.042-0.332c-0.027-0.088-0.088-0.133-0.182-0.133c-0.226,0-0.419,0.054-0.579,0.162
		c-0.16,0.107-0.296,0.249-0.409,0.423c-0.113,0.175-0.224,0.421-0.334,0.739c-0.11,0.318-0.189,0.585-0.236,0.801
		c-0.046,0.216-0.076,0.422-0.086,0.618c-0.011,0.197-0.017,0.361-0.017,0.494c0,0.199,0.018,0.407,0.054,0.623
		s0.107,0.414,0.215,0.593c0.107,0.18,0.247,0.33,0.417,0.448c0.17,0.119,0.391,0.179,0.661,0.179c0.266,0,0.559-0.082,0.88-0.245
		c0.321-0.163,0.643-0.369,0.967-0.618s0.632-0.523,0.926-0.822c0.293-0.299,0.545-0.581,0.755-0.847l0.573,0.963
		c-0.415,0.592-0.863,1.121-1.345,1.585c-0.205,0.199-0.428,0.393-0.668,0.581s-0.493,0.355-0.755,0.502
		c-0.263,0.147-0.537,0.266-0.822,0.357C26.177,16.965,25.888,17.011,25.596,17.011z"/>
	<path d="M31.113,17.011c-0.298,0-0.575-0.129-0.831-0.388s-0.48-0.606-0.67-1.042c-0.19-0.436-0.339-0.941-0.447-1.516
		s-0.161-1.178-0.161-1.81c0-0.543,0.08-1.268,0.239-2.174s0.239-1.36,0.239-1.36c0,0,0.121-0.453,0.363-1.358
		s0.484-1.632,0.728-2.179s0.507-1.058,0.792-1.533c0.285-0.476,0.584-0.89,0.897-1.243s0.64-0.631,0.981-0.833
		c0.341-0.202,0.688-0.303,1.04-0.303c0.256,0,0.468,0.049,0.634,0.146c0.167,0.098,0.298,0.227,0.394,0.388
		s0.163,0.342,0.201,0.545s0.058,0.41,0.058,0.621c0,0.523-0.062,1.056-0.186,1.599c-0.124,0.542-0.291,1.087-0.5,1.636
		c-0.21,0.548-0.453,1.098-0.729,1.648c-0.276,0.551-0.564,1.098-0.863,1.64c-0.299,0.543-0.6,1.077-0.902,1.603
		c-0.302,0.526-0.581,1.04-0.836,1.542c-0.028,0.056-0.057,0.128-0.087,0.218s-0.06,0.186-0.087,0.289
		c-0.028,0.104-0.056,0.214-0.083,0.331c-0.028,0.117-0.05,0.232-0.067,0.343v0.117c0,0.146,0.015,0.286,0.046,0.423
		c0.03,0.137,0.068,0.26,0.112,0.368c0.044,0.109,0.092,0.196,0.142,0.26s0.097,0.096,0.142,0.096c0.107,0,0.231-0.022,0.37-0.067
		s0.286-0.104,0.442-0.18c0.156-0.075,0.316-0.162,0.48-0.259c0.164-0.098,0.323-0.197,0.476-0.297
		c0.357-0.234,0.73-0.505,1.122-0.812l0.733,1.75c-0.507,0.336-1.008,0.637-1.504,0.899c-0.216,0.111-0.44,0.22-0.671,0.328
		s-0.463,0.204-0.697,0.288c-0.234,0.084-0.461,0.151-0.684,0.201C31.514,16.986,31.307,17.011,31.113,17.011z M31.121,10.431
		c0.25-0.446,0.515-0.949,0.795-1.507c0.28-0.558,0.545-1.133,0.795-1.724c0.25-0.592,0.467-1.182,0.65-1.771
		s0.299-1.137,0.35-1.645c0-0.162-0.004-0.3-0.012-0.415c-0.008-0.114-0.033-0.171-0.075-0.171c-0.152,0-0.316,0.105-0.492,0.315
		c-0.176,0.21-0.352,0.495-0.527,0.854c-0.176,0.359-0.386,0.942-0.629,1.75C31.732,6.926,31.61,7.33,31.61,7.331
		c0,0-0.074,0.375-0.223,1.125S31.149,9.864,31.121,10.431z"/>
	<path d="M36.521,17.011c-0.517,0-0.969-0.096-1.356-0.287c-0.388-0.191-0.711-0.449-0.969-0.773
		c-0.258-0.324-0.452-0.699-0.581-1.124c-0.129-0.425-0.194-0.872-0.194-1.339c0-0.306,0.058-0.67,0.173-1.093
		s0.235-0.799,0.359-1.127c0.124-0.328,0.279-0.64,0.466-0.938c0.187-0.297,0.406-0.56,0.656-0.786
		c0.25-0.227,0.531-0.407,0.842-0.541s0.656-0.201,1.036-0.201c0.31,0,0.598,0.05,0.864,0.149c0.265,0.099,0.498,0.239,0.694,0.418
		s0.351,0.396,0.461,0.651s0.167,0.539,0.167,0.854c0,0.335-0.113,0.711-0.338,1.128c-0.225,0.417-0.486,0.774-0.785,1.071
		c-0.3,0.298-0.656,0.563-1.069,0.796c-0.413,0.232-0.861,0.414-1.343,0.543c0.083,0.146,0.165,0.268,0.246,0.366
		c0.081,0.097,0.163,0.173,0.246,0.227c0.083,0.054,0.171,0.092,0.263,0.114c0.091,0.021,0.19,0.032,0.296,0.032
		c0.332,0,0.682-0.065,1.05-0.195c0.368-0.13,0.727-0.292,1.075-0.487c0.35-0.195,0.678-0.407,0.988-0.637
		c0.31-0.23,0.572-0.448,0.789-0.653l1.07,1.087c-0.487,0.519-1.004,0.978-1.553,1.376c-0.238,0.171-0.494,0.339-0.768,0.504
		s-0.562,0.312-0.863,0.44c-0.302,0.128-0.614,0.23-0.938,0.308C37.181,16.972,36.853,17.011,36.521,17.011z M35.412,13.057
		c0.2,0,0.418-0.05,0.654-0.15c0.236-0.1,0.455-0.229,0.658-0.386c0.203-0.157,0.401-0.368,0.596-0.633
		c0.194-0.265,0.292-0.484,0.292-0.658c0-0.243-0.046-0.443-0.138-0.601c-0.091-0.157-0.204-0.235-0.337-0.235
		c-0.239,0-0.443,0.043-0.612,0.13c-0.169,0.087-0.311,0.199-0.425,0.337s-0.206,0.295-0.275,0.471
		c-0.07,0.176-0.15,0.394-0.242,0.653c-0.092,0.26-0.143,0.474-0.154,0.641C35.417,12.795,35.412,12.938,35.412,13.057z"/>
</g>
</svg>
